<svg width="14" height="14" viewBox="0 0 14 14" fill="none" xmlns="http://www.w3.org/2000/svg">
<path d="M4.375 4.95825L4.375 4.66658C4.375 3.21684 5.55025 2.04158 7 2.04158V2.04158C8.44975 2.04158 9.625 3.21684 9.625 4.66658L9.625 4.95825" stroke="#F2F2F2" stroke-linecap="round"/>
<path d="M9.04167 7.87492V6.70825" stroke="#F2F2F2" stroke-linecap="round"/>
<path d="M4.95833 7.87492V6.70825" stroke="#F2F2F2" stroke-linecap="round"/>
<path d="M3.20833 7.58325C3.20833 6.8149 3.20833 6.43073 3.3237 6.1242C3.50629 5.63907 3.88915 5.25621 4.37428 5.07362C4.68081 4.95825 5.06498 4.95825 5.83333 4.95825H8.16666C8.93501 4.95825 9.31919 4.95825 9.62572 5.07362C10.1108 5.25621 10.4937 5.63907 10.6763 6.1242C10.7917 6.43073 10.7917 6.8149 10.7917 7.58325V8.16659C10.7917 8.90237 10.7917 9.27026 10.7275 9.57558C10.4827 10.7397 9.57314 11.6493 8.409 11.894C8.10367 11.9583 7.73578 11.9583 7 11.9583V11.9583C6.26422 11.9583 5.89633 11.9583 5.591 11.894C4.42686 11.6493 3.51733 10.7397 3.27254 9.57558C3.20833 9.27026 3.20833 8.90237 3.20833 8.16659V7.58325Z" stroke="#F2F2F2"/>
</svg>
