<svg width="19" height="19" viewBox="0 0 19 19" fill="none" xmlns="http://www.w3.org/2000/svg">
<path d="M11.4792 16.625V12.875C11.4792 12.3227 11.0314 11.875 10.4792 11.875H8.52083C7.96854 11.875 7.52083 12.3227 7.52083 12.875V16.625" stroke="#222222" stroke-linecap="round" stroke-linejoin="round"/>
<path d="M3.95833 8.70825V12.6249C3.95833 14.5105 3.95833 15.4533 4.54411 16.0391C5.1299 16.6249 6.07271 16.6249 7.95833 16.6249H11.0417C12.9273 16.6249 13.8701 16.6249 14.4559 16.0391C15.0417 15.4533 15.0417 14.5105 15.0417 12.6249V8.70825" stroke="#222222"/>
<path d="M3.5796 3.88993C3.76149 3.16237 3.85244 2.79859 4.1237 2.58679C4.39496 2.375 4.76993 2.375 5.51989 2.375H13.4801C14.2301 2.375 14.605 2.375 14.8763 2.58679C15.1476 2.79859 15.2385 3.16237 15.4204 3.88993L16.2944 7.38576C16.3124 7.45804 16.3215 7.49417 16.3269 7.52292C16.4387 8.11543 16.0046 8.67138 15.4027 8.70662C15.3735 8.70833 15.3326 8.70833 15.2507 8.70833V8.70833C15.1621 8.70833 15.1178 8.70833 15.0831 8.70712C14.1582 8.67495 13.3762 8.0125 13.1924 7.10552C13.1855 7.07143 13.179 7.03244 13.166 6.95445V6.95445C13.1624 6.93264 13.1606 6.92174 13.1598 6.91836C13.1353 6.81603 12.9897 6.81603 12.9652 6.91836C12.9644 6.92174 12.9626 6.93264 12.959 6.95445L12.8944 7.34177C12.763 8.13035 12.0807 8.70833 11.2813 8.70833V8.70833C10.4818 8.70833 9.7995 8.13035 9.66807 7.34177L9.60352 6.95445C9.59989 6.93264 9.59807 6.92174 9.59726 6.91836C9.57279 6.81603 9.42721 6.81603 9.40274 6.91836C9.40193 6.92174 9.40012 6.93264 9.39648 6.95445L9.33193 7.34177C9.2005 8.13035 8.51821 8.70833 7.71875 8.70833V8.70833C6.91929 8.70833 6.237 8.13035 6.10557 7.34177L6.04102 6.95445C6.03738 6.93264 6.03557 6.92174 6.03476 6.91836C6.01029 6.81603 5.86471 6.81603 5.84024 6.91836C5.83943 6.92174 5.83762 6.93264 5.83398 6.95445V6.95445C5.82098 7.03244 5.81448 7.07143 5.80758 7.10552C5.6238 8.0125 4.84179 8.67495 3.91694 8.70712C3.88219 8.70833 3.83788 8.70833 3.74926 8.70833V8.70833C3.66744 8.70833 3.62653 8.70833 3.59733 8.70662C2.99539 8.67138 2.56132 8.11543 2.67312 7.52292C2.67854 7.49417 2.68757 7.45804 2.70564 7.38576L3.5796 3.88993Z" stroke="#222222"/>
</svg>
